/* XPM */
static char * AppIcon__xpm[] = {
"32 32 277 2",
"  	c None",
". 	c #FDF6E9",
"+ 	c #EAE6DD",
"@ 	c #E9E2D8",
"# 	c #ECE9E2",
"$ 	c #F7EFE2",
"% 	c #E5DBCD",
"& 	c #BCB7B1",
"* 	c #C3BCB4",
"= 	c #BCB2A6",
"- 	c #81776E",
"; 	c #A99F92",
"> 	c #D2CABE",
", 	c #E2D8CA",
"' 	c #E3DACD",
") 	c #DAD2C5",
"! 	c #DFD7CB",
"~ 	c #EAE1D3",
"{ 	c #E2D9CB",
"] 	c #ADA497",
"^ 	c #7B7168",
"/ 	c #83796F",
"( 	c #CBC3B8",
"_ 	c #A99F94",
": 	c #AAA096",
"< 	c #CDCAC0",
"[ 	c #B6AFA7",
"} 	c #645B57",
"| 	c #433935",
"1 	c #3C312E",
"2 	c #5A4E48",
"3 	c #382D2B",
"4 	c #433834",
"5 	c #CAC5BE",
"6 	c #FBF1E3",
"7 	c #F7EEE2",
"8 	c #F0E5D8",
"9 	c #F5ECE1",
"0 	c #FCF4E6",
"a 	c #FCF2E5",
"b 	c #ABA196",
"c 	c #3A2F2C",
"d 	c #443A36",
"e 	c #4E443F",
"f 	c #665B53",
"g 	c #5D524B",
"h 	c #463B37",
"i 	c #9A9188",
"j 	c #544A47",
"k 	c #72665D",
"l 	c #C2B9AD",
"m 	c #A79C90",
"n 	c #443733",
"o 	c #2C1F1E",
"p 	c #312422",
"q 	c #A9A095",
"r 	c #FEFCEF",
"s 	c #FDF8EB",
"t 	c #FAEEE0",
"u 	c #FCF4E7",
"v 	c #FDF9EC",
"w 	c #FDF8EA",
"x 	c #918579",
"y 	c #3F3430",
"z 	c #443935",
"A 	c #6E645F",
"B 	c #C2B8AA",
"C 	c #E0D8CC",
"D 	c #857A71",
"E 	c #4A3F3B",
"F 	c #CDC5BA",
"G 	c #594E48",
"H 	c #CEC4B7",
"I 	c #DDD5C7",
"J 	c #837971",
"K 	c #4B403C",
"L 	c #3E332F",
"M 	c #2B201F",
"N 	c #504644",
"O 	c #F9F7EA",
"P 	c #FEFAED",
"Q 	c #FAEEE1",
"R 	c #FAF0E2",
"S 	c #FEFDF0",
"T 	c #F7EDE0",
"U 	c #4C423D",
"V 	c #3D322E",
"W 	c #70665D",
"X 	c #D0C7BA",
"Y 	c #E6DACB",
"Z 	c #6A5E56",
"` 	c #8D837A",
" .	c #685E59",
"..	c #7B7067",
"+.	c #CEC3B5",
"@.	c #756B62",
"#.	c #342826",
"$.	c #281B1A",
"%.	c #231717",
"&.	c #2B201E",
"*.	c #C5BEB2",
"=.	c #E0D8CA",
"-.	c #382D2A",
";.	c #362B28",
">.	c #463B36",
",.	c #62564F",
"'.	c #D9CEBF",
").	c #7B6F67",
"!.	c #635954",
"~.	c #675D57",
"{.	c #6D6159",
"].	c #988E82",
"^.	c #2F2422",
"/.	c #382C2A",
"(.	c #2A1E1D",
"_.	c #80766F",
":.	c #FCF5E7",
"<.	c #FEFBEE",
"[.	c #ACA599",
"}.	c #392E2B",
"|.	c #3C312D",
"1.	c #473C37",
"2.	c #3B2F2C",
"3.	c #2B1F1E",
"4.	c #000000",
"5.	c #9E9387",
"6.	c #453A35",
"7.	c #413632",
"8.	c #291C1C",
"9.	c #281C1B",
"0.	c #5F534E",
"a.	c #EEE9DB",
"b.	c #FBF2E5",
"c.	c #FBF7E9",
"d.	c #877E79",
"e.	c #403531",
"f.	c #403430",
"g.	c #F0E7DF",
"h.	c #E7DBD0",
"i.	c #D5C4B6",
"j.	c #9F8672",
"k.	c #A0978C",
"l.	c #6F645C",
"m.	c #483D39",
"n.	c #2D211F",
"o.	c #251818",
"p.	c #261A19",
"q.	c #271B1A",
"r.	c #5E534C",
"s.	c #DAD5C7",
"t.	c #EAE5D7",
"u.	c #6B6159",
"v.	c #8E7866",
"w.	c #76553B",
"x.	c #F6F3E6",
"y.	c #EBE0D2",
"z.	c #CFC7BA",
"A.	c #71665E",
"B.	c #2C201F",
"C.	c #2D201E",
"D.	c #312523",
"E.	c #362A28",
"F.	c #544943",
"G.	c #D2CCBE",
"H.	c #D6D0C2",
"I.	c #61564F",
"J.	c #B4A08F",
"K.	c #826249",
"L.	c #E7DDCF",
"M.	c #F9ECDE",
"N.	c #F2E7D9",
"O.	c #968D84",
"P.	c #372B28",
"Q.	c #403532",
"R.	c #524741",
"S.	c #CDC4B6",
"T.	c #FBF0E3",
"U.	c #FCF5E9",
"V.	c #BCB4AA",
"W.	c #5E544E",
"X.	c #B45B0B",
"Y.	c #BFAC9C",
"Z.	c #7A3900",
"`.	c #E6DCCE",
" +	c #FAF1E4",
".+	c #FBF1E4",
"++	c #EEE6D9",
"@+	c #6B6057",
"#+	c #493E3A",
"$+	c #3D322F",
"%+	c #BEB6AB",
"&+	c #FBF4E8",
"*+	c #BAB3A9",
"=+	c #504640",
"-+	c #DE7E21",
";+	c #FF9434",
">+	c #A75308",
",+	c #944500",
"'+	c #ECE1D3",
")+	c #F5EADC",
"!+	c #FAEDDF",
"~+	c #C0BAB1",
"{+	c #594F49",
"]+	c #443934",
"^+	c #50453F",
"/+	c #CDC7B9",
"(+	c #FBF2E4",
"_+	c #BEB9AD",
":+	c #483C37",
"<+	c #FFA656",
"[+	c #FF9F4B",
"}+	c #FE9435",
"|+	c #F18A2E",
"1+	c #E58128",
"2+	c #D67723",
"3+	c #CA6D1B",
"4+	c #BA6111",
"5+	c #EBE4D6",
"6+	c #F8F1E4",
"7+	c #FCF5E8",
"8+	c #F8EEE1",
"9+	c #D3C8BA",
"0+	c #746961",
"a+	c #645953",
"b+	c #E4DBCE",
"c+	c #FDF6EA",
"d+	c #D2C9BB",
"e+	c #51453F",
"f+	c #FF0E02",
"g+	c #EBE4D8",
"h+	c #F0E6D8",
"i+	c #EFE4D6",
"j+	c #FAEFE1",
"k+	c #E6DBCD",
"l+	c #A59C92",
"m+	c #EFE9DD",
"n+	c #DED9CB",
"o+	c #7A7067",
"p+	c #FF290D",
"q+	c #FF2002",
"r+	c #EADFD1",
"s+	c #F2E6D8",
"t+	c #E3D9CB",
"u+	c #F9F1E4",
"v+	c #EFE8DA",
"w+	c #BFB6A8",
"x+	c #ECE6D9",
"y+	c #D9D1C4",
"z+	c #D8CDBF",
"A+	c #CCC2B5",
"B+	c #757575",
"C+	c #575757",
"D+	c #B8AFA2",
"E+	c #72685F",
"F+	c #6D645C",
"G+	c #929292",
"H+	c #A8A8A8",
"I+	c #6E6E6E",
"J+	c #626262",
"K+	c #C9C1B5",
"L+	c #534944",
"M+	c #5E5451",
"N+	c #BFBAB1",
"O+	c #BABABA",
"P+	c #B2B2B2",
"Q+	c #A0A0A0",
"R+	c #989898",
"S+	c #8E8E8E",
"T+	c #858585",
"U+	c #7A7A7A",
"V+	c #B4ACA4",
"W+	c #5F5651",
"X+	c #7F766C",
"Y+	c #B6B0A7",
"Z+	c #232323",
"`+	c #212121",
" @	c #1F1F1F",
"                . + @ # $ % + #                                 ",
"      & * = - ; > , ' ) ! ~ { ] ^ / ( _ : <                     ",
"  [ } | 1 2 3 4 5 6 7 8 9 0 a b c d e f g h i                   ",
"  j k l m n o p q r s t u v w x y z A B C D E F                 ",
"i G H I J K L M N O P Q R S T U V y 4 W X Y Z `                 ",
" ...+.@.c #.$.%.&.*.P Q R r =.-.;.z >.V ,.'.).!.                ",
"~.{.].^./.(.%.%.%._.P R :.<.[.}.}.|.1.2.3.4.4.4.4.              ",
"5.6.7.%.8.9.%.%.%.0.a.s b.c.d.e.7.f.4.4.4.g.h.i.j.4.4.4.        ",
"  k.l.m.o n.o.p.q.r.s.s s t.u.>.4.4.i.i.j.h.i.j.v.w.v.j.4.4.    ",
"x.y.t.z.A.B.C.D.E.F.G.s s H.I.4.h.J.J.i.i.j.j.K.w.v.j.j.j.i.4.  ",
"  L.t M.N.O.P.Q.z R.S.T.U.V.W.4.X.h.h.J.J.Y.Y.Y.Y.Y.Y.i.i.Z.4.  ",
"  `. +.+6 ++@+#+$+1.%+. &+*+=+4.X.-+;+h.h.h.h.i.i.i.i.>+,+Z.4.  ",
"  '+)+u !+0 ~+{+]+^+/+(+w _+:+4.X.-+;+<+[+}+|+1+2+3+4+>+,+Z.4.  ",
"  5+L.6+7+t 8+9+0+a+b+. c+d+e+4.X.-+;+<+[+}+f+1+2+3+4+>+,+Z.4.  ",
"    5+g+h+i+M.j+k+l+m+a s n+o+4.X.-+;+<+[+p+f+q+2+3+4+>+,+Z.4.  ",
"          x.r+s+M.t+u+Q 6 v+w+4.X.-+;+<+[+}+f+1+2+3+4+>+,+Z.4.  ",
"              x+y+, z+A+A+z+, 4.B+-+;+<+[+}+|+1+2+3+4+>+,+C+4.  ",
"                x+D+E+F+F+E+D+4.B+G+H+<+[+}+|+1+2+3+4+I+J+C+4.  ",
"                  K+m.L+M+U N+4.B+G+H+O+P+H+Q+R+S+T+U+I+J+C+4.  ",
"                    V+W+X+Y+  4.B+G+H+O+P+H+Q+R+S+T+U+I+J+C+4.  ",
"                              4.B+G+H+O+P+H+Q+R+S+T+U+I+J+C+4.  ",
"                              4.B+G+H+O+P+H+Q+R+S+T+U+I+J+C+4.  ",
"                              4.B+G+H+O+P+H+Q+R+S+T+U+I+J+C+4.  ",
"                              4.B+G+H+O+P+H+Q+R+S+T+U+I+J+C+4.  ",
"                              4.B+G+H+O+P+H+Q+R+S+T+U+I+J+C+4.  ",
"                              4.B+G+H+O+P+H+Q+R+S+T+U+I+J+C+4.  ",
"                              4.B+G+H+O+P+Z+`+ @S+T+U+I+J+C+4.  ",
"                              4.B+G+H+O+P+H+Q+R+S+T+U+I+J+C+4.  ",
"                                4.G+H+O+P+H+Q+R+S+T+U+I+J+4.    ",
"                                  4.4.O+P+H+Q+R+S+T+U+4.4.      ",
"                                      4.4.4.4.4.4.4.4.          ",
"                                                                "};
